<svg width="690" height="144" viewBox="0 0 690 144" fill="none" xmlns="http://www.w3.org/2000/svg">
<rect width="690" height="144" rx="30" fill="#563399"/>
<path d="M268.81 48.418H271.996V53.638L276.334 48.418H280.114L275.02 54.538L280.456 61H276.676L271.996 55.438V61H268.81V48.418ZM286.415 61.27C285.143 61.27 283.991 60.994 282.959 60.442C281.939 59.89 281.129 59.122 280.529 58.138C279.941 57.142 279.647 56.002 279.647 54.718C279.647 53.434 279.941 52.294 280.529 51.298C281.129 50.302 281.939 49.528 282.959 48.976C283.991 48.424 285.143 48.148 286.415 48.148C287.675 48.148 288.815 48.424 289.835 48.976C290.867 49.528 291.677 50.302 292.265 51.298C292.853 52.294 293.147 53.434 293.147 54.718C293.147 56.002 292.853 57.142 292.265 58.138C291.677 59.122 290.867 59.89 289.835 60.442C288.815 60.994 287.675 61.27 286.415 61.27ZM286.415 58.282C287.051 58.282 287.633 58.138 288.161 57.85C288.689 57.562 289.109 57.148 289.421 56.608C289.733 56.068 289.889 55.438 289.889 54.718C289.889 53.998 289.733 53.374 289.421 52.846C289.121 52.306 288.707 51.892 288.179 51.604C287.651 51.304 287.063 51.154 286.415 51.154C285.755 51.154 285.161 51.304 284.633 51.604C284.105 51.892 283.685 52.306 283.373 52.846C283.073 53.374 282.923 53.998 282.923 54.718C282.923 55.438 283.073 56.068 283.373 56.608C283.685 57.148 284.105 57.562 284.633 57.85C285.173 58.138 285.767 58.282 286.415 58.282ZM294.404 48.418H297.59V61H294.404V48.418ZM307.012 51.208C306.532 51.208 306.13 51.052 305.806 50.74C305.482 50.428 305.32 50.032 305.32 49.552C305.32 49.084 305.482 48.694 305.806 48.382C306.13 48.058 306.532 47.896 307.012 47.896C307.48 47.896 307.876 48.058 308.2 48.382C308.536 48.694 308.704 49.084 308.704 49.552C308.704 50.02 308.536 50.416 308.2 50.74C307.876 51.052 307.48 51.208 307.012 51.208ZM305.428 52.36H308.596V61H305.428V52.36ZM314.056 61.27C313.36 61.27 312.634 61.198 311.878 61.054C311.122 60.922 310.522 60.73 310.078 60.478V58.156C310.57 58.444 311.158 58.684 311.842 58.876C312.538 59.056 313.174 59.146 313.75 59.146C314.17 59.146 314.476 59.116 314.668 59.056C314.86 58.996 314.956 58.876 314.956 58.696C314.956 58.552 314.89 58.438 314.758 58.354C314.638 58.258 314.41 58.162 314.074 58.066C313.75 57.958 313.372 57.844 312.94 57.724C312.208 57.508 311.632 57.286 311.212 57.058C310.792 56.83 310.48 56.542 310.276 56.194C310.072 55.846 309.97 55.408 309.97 54.88C309.97 53.944 310.336 53.248 311.068 52.792C311.812 52.324 312.826 52.09 314.11 52.09C314.734 52.09 315.388 52.156 316.072 52.288C316.768 52.42 317.29 52.594 317.638 52.81V55.096C317.278 54.856 316.798 54.658 316.198 54.502C315.61 54.346 315.058 54.268 314.542 54.268C314.134 54.268 313.816 54.31 313.588 54.394C313.36 54.466 313.246 54.598 313.246 54.79C313.246 54.97 313.36 55.108 313.588 55.204C313.816 55.3 314.224 55.42 314.812 55.564C315.196 55.66 315.358 55.702 315.298 55.69C316.066 55.894 316.66 56.122 317.08 56.374C317.5 56.626 317.794 56.926 317.962 57.274C318.142 57.61 318.232 58.042 318.232 58.57C318.232 59.398 317.872 60.058 317.152 60.55C316.444 61.03 315.412 61.27 314.056 61.27ZM331.725 61.27C330.489 61.27 329.469 60.892 328.665 60.136V61H325.605V47.698H328.773V53.062C329.121 52.762 329.553 52.528 330.069 52.36C330.597 52.18 331.149 52.09 331.725 52.09C332.637 52.09 333.435 52.282 334.119 52.666C334.815 53.05 335.355 53.596 335.739 54.304C336.123 55 336.315 55.798 336.315 56.698C336.315 57.61 336.123 58.414 335.739 59.11C335.355 59.794 334.815 60.328 334.119 60.712C333.423 61.084 332.625 61.27 331.725 61.27ZM330.897 58.822C331.545 58.822 332.067 58.636 332.463 58.264C332.859 57.88 333.057 57.358 333.057 56.698C333.057 56.038 332.859 55.516 332.463 55.132C332.067 54.748 331.545 54.556 330.897 54.556C330.417 54.556 329.985 54.682 329.601 54.934C329.217 55.174 328.941 55.504 328.773 55.924V57.454C328.941 57.874 329.217 58.21 329.601 58.462C329.985 58.702 330.417 58.822 330.897 58.822ZM340.593 61.27C339.405 61.27 338.511 60.94 337.911 60.28C337.323 59.62 337.029 58.75 337.029 57.67V52.36H340.197V57.31C340.197 58.306 340.647 58.804 341.547 58.804C341.955 58.804 342.327 58.708 342.663 58.516C342.999 58.324 343.275 58.042 343.491 57.67V52.36H346.659V61H343.599V60.064C343.227 60.46 342.777 60.76 342.249 60.964C341.721 61.168 341.169 61.27 340.593 61.27ZM349.973 51.208C349.493 51.208 349.091 51.052 348.767 50.74C348.443 50.428 348.281 50.032 348.281 49.552C348.281 49.084 348.443 48.694 348.767 48.382C349.091 48.058 349.493 47.896 349.973 47.896C350.441 47.896 350.837 48.058 351.161 48.382C351.497 48.694 351.665 49.084 351.665 49.552C351.665 50.02 351.497 50.416 351.161 50.74C350.837 51.052 350.441 51.208 349.973 51.208ZM348.389 52.36H351.557V61H348.389V52.36ZM353.29 47.698H356.458V61H353.29V47.698ZM362.302 61.27C361.402 61.27 360.604 61.084 359.908 60.712C359.212 60.328 358.672 59.794 358.288 59.11C357.904 58.414 357.712 57.61 357.712 56.698C357.712 55.798 357.904 55 358.288 54.304C358.672 53.596 359.206 53.05 359.89 52.666C360.586 52.282 361.39 52.09 362.302 52.09C362.902 52.09 363.454 52.174 363.958 52.342C364.462 52.51 364.894 52.75 365.254 53.062V47.698H368.422V61H365.362V60.136C364.558 60.892 363.538 61.27 362.302 61.27ZM363.13 58.822C363.61 58.822 364.042 58.702 364.426 58.462C364.81 58.21 365.086 57.874 365.254 57.454V55.924C365.086 55.504 364.81 55.174 364.426 54.934C364.042 54.682 363.61 54.556 363.13 54.556C362.482 54.556 361.96 54.748 361.564 55.132C361.168 55.516 360.97 56.038 360.97 56.698C360.97 57.358 361.168 57.88 361.564 58.264C361.96 58.636 362.482 58.822 363.13 58.822ZM371.734 51.208C371.254 51.208 370.852 51.052 370.528 50.74C370.204 50.428 370.042 50.032 370.042 49.552C370.042 49.084 370.204 48.694 370.528 48.382C370.852 48.058 371.254 47.896 371.734 47.896C372.202 47.896 372.598 48.058 372.922 48.382C373.258 48.694 373.426 49.084 373.426 49.552C373.426 50.02 373.258 50.416 372.922 50.74C372.598 51.052 372.202 51.208 371.734 51.208ZM370.15 52.36H373.318V61H370.15V52.36ZM375.052 52.36H378.112V53.314C378.484 52.906 378.934 52.6 379.462 52.396C379.99 52.192 380.542 52.09 381.118 52.09C382.33 52.09 383.224 52.408 383.8 53.044C384.388 53.668 384.682 54.52 384.682 55.6V61H381.514V56.014C381.514 55.042 381.07 54.556 380.182 54.556C379.774 54.556 379.402 54.652 379.066 54.844C378.73 55.024 378.448 55.306 378.22 55.69V61H375.052V52.36ZM390.912 65.14C390.336 65.14 389.754 65.086 389.166 64.978C388.59 64.87 388.092 64.726 387.672 64.546V62.35C388.62 62.758 389.7 62.962 390.912 62.962C391.788 62.962 392.418 62.782 392.802 62.422C393.198 62.062 393.396 61.534 393.396 60.838V60.316C393.048 60.616 392.616 60.85 392.1 61.018C391.596 61.186 391.056 61.27 390.48 61.27C389.568 61.27 388.764 61.078 388.068 60.694C387.372 60.31 386.826 59.77 386.43 59.074C386.046 58.378 385.854 57.58 385.854 56.68C385.854 55.768 386.046 54.964 386.43 54.268C386.814 53.572 387.354 53.038 388.05 52.666C388.746 52.282 389.544 52.09 390.444 52.09C391.68 52.09 392.7 52.468 393.504 53.224V52.36H396.564V60.406C396.564 61.906 396.102 63.07 395.178 63.898C394.266 64.726 392.844 65.14 390.912 65.14ZM391.272 58.822C391.764 58.822 392.202 58.696 392.586 58.444C392.97 58.192 393.24 57.856 393.396 57.436V55.924C393.228 55.504 392.952 55.174 392.568 54.934C392.184 54.682 391.752 54.556 391.272 54.556C390.624 54.556 390.102 54.748 389.706 55.132C389.31 55.504 389.112 56.014 389.112 56.662C389.112 57.322 389.31 57.85 389.706 58.246C390.102 58.63 390.624 58.822 391.272 58.822ZM404.302 48.418H408.82C410.2 48.418 411.406 48.67 412.438 49.174C413.47 49.678 414.262 50.404 414.814 51.352C415.378 52.288 415.66 53.386 415.66 54.646C415.66 56.734 415.048 58.318 413.824 59.398C412.6 60.466 410.902 61 408.73 61H404.302V48.418ZM409 58.318C410.092 58.318 410.926 57.988 411.502 57.328C412.09 56.668 412.384 55.774 412.384 54.646C412.384 53.614 412.09 52.768 411.502 52.108C410.926 51.436 410.128 51.1 409.108 51.1H407.488V58.318H409ZM421.999 61.27C420.307 61.27 418.975 60.874 418.003 60.082C417.043 59.29 416.563 58.168 416.563 56.716C416.563 55.288 416.989 54.16 417.841 53.332C418.705 52.504 419.947 52.09 421.567 52.09C422.599 52.09 423.481 52.288 424.213 52.684C424.957 53.068 425.515 53.602 425.887 54.286C426.271 54.958 426.463 55.72 426.463 56.572V57.742H419.569C419.689 58.222 419.989 58.57 420.469 58.786C420.949 59.002 421.603 59.11 422.431 59.11C422.995 59.11 423.571 59.062 424.159 58.966C424.759 58.87 425.275 58.738 425.707 58.57V60.658C425.263 60.838 424.705 60.982 424.033 61.09C423.373 61.21 422.695 61.27 421.999 61.27ZM423.475 55.762C423.427 55.294 423.235 54.928 422.899 54.664C422.563 54.4 422.101 54.268 421.513 54.268C420.937 54.268 420.481 54.406 420.145 54.682C419.809 54.946 419.617 55.306 419.569 55.762H423.475ZM432.504 61.27C430.92 61.27 429.666 60.874 428.742 60.082C427.818 59.29 427.356 58.162 427.356 56.698C427.356 55.234 427.818 54.1 428.742 53.296C429.678 52.492 430.938 52.09 432.522 52.09C433.23 52.09 433.89 52.162 434.502 52.306C435.126 52.438 435.642 52.63 436.05 52.882V55.348C435.318 54.82 434.352 54.556 433.152 54.556C432.384 54.556 431.766 54.736 431.298 55.096C430.842 55.444 430.614 55.978 430.614 56.698C430.614 57.43 430.842 57.97 431.298 58.318C431.754 58.654 432.366 58.822 433.134 58.822C434.298 58.822 435.306 58.546 436.158 57.994V60.442C435.246 60.994 434.028 61.27 432.504 61.27ZM442.495 61.27C440.803 61.27 439.471 60.874 438.499 60.082C437.539 59.29 437.059 58.168 437.059 56.716C437.059 55.288 437.485 54.16 438.337 53.332C439.201 52.504 440.443 52.09 442.063 52.09C443.095 52.09 443.977 52.288 444.709 52.684C445.453 53.068 446.011 53.602 446.383 54.286C446.767 54.958 446.959 55.72 446.959 56.572V57.742H440.065C440.185 58.222 440.485 58.57 440.965 58.786C441.445 59.002 442.099 59.11 442.927 59.11C443.491 59.11 444.067 59.062 444.655 58.966C445.255 58.87 445.771 58.738 446.203 58.57V60.658C445.759 60.838 445.201 60.982 444.529 61.09C443.869 61.21 443.191 61.27 442.495 61.27ZM443.971 55.762C443.923 55.294 443.731 54.928 443.395 54.664C443.059 54.4 442.597 54.268 442.009 54.268C441.433 54.268 440.977 54.406 440.641 54.682C440.305 54.946 440.113 55.306 440.065 55.762H443.971ZM448.212 52.36H451.272V53.314C451.644 52.906 452.094 52.6 452.622 52.396C453.15 52.192 453.702 52.09 454.278 52.09C455.49 52.09 456.384 52.408 456.96 53.044C457.548 53.668 457.842 54.52 457.842 55.6V61H454.674V56.014C454.674 55.042 454.23 54.556 453.342 54.556C452.934 54.556 452.562 54.652 452.226 54.844C451.89 55.024 451.608 55.306 451.38 55.69V61H448.212V52.36ZM463.118 61.27C462.05 61.27 461.24 60.976 460.688 60.388C460.148 59.788 459.878 58.972 459.878 57.94V54.556H458.654V52.36H459.878V49.768H463.046V52.36H465.026V54.556H463.046V57.508C463.046 57.976 463.13 58.312 463.298 58.516C463.478 58.72 463.79 58.822 464.234 58.822C464.63 58.822 465.026 58.714 465.422 58.498V60.856C465.11 61 464.774 61.102 464.414 61.162C464.066 61.234 463.634 61.27 463.118 61.27ZM466.318 52.36H469.378V53.44C469.714 53.056 470.188 52.762 470.8 52.558C471.412 52.342 472.09 52.234 472.834 52.234V54.664C472.042 54.664 471.34 54.778 470.728 55.006C470.128 55.234 469.714 55.576 469.486 56.032V61H466.318V52.36ZM476.185 61.27C475.105 61.27 474.229 61.012 473.557 60.496C472.897 59.968 472.567 59.236 472.567 58.3C472.567 57.328 472.885 56.584 473.521 56.068C474.169 55.54 475.093 55.276 476.293 55.276C476.761 55.276 477.229 55.33 477.697 55.438C478.165 55.534 478.567 55.666 478.903 55.834V55.654C478.903 54.73 478.147 54.268 476.635 54.268C475.579 54.268 474.613 54.472 473.737 54.88V52.702C474.121 52.522 474.625 52.378 475.249 52.27C475.873 52.15 476.521 52.09 477.193 52.09C478.801 52.09 480.013 52.414 480.829 53.062C481.657 53.698 482.071 54.592 482.071 55.744V61H479.101V60.262C478.777 60.574 478.369 60.82 477.877 61C477.385 61.18 476.821 61.27 476.185 61.27ZM477.121 59.326C477.493 59.326 477.841 59.254 478.165 59.11C478.489 58.954 478.735 58.756 478.903 58.516V57.76C478.387 57.412 477.799 57.238 477.139 57.238C476.719 57.238 476.395 57.328 476.167 57.508C475.939 57.688 475.825 57.952 475.825 58.3C475.825 58.624 475.933 58.876 476.149 59.056C476.377 59.236 476.701 59.326 477.121 59.326ZM483.597 47.698H486.765V61H483.597V47.698ZM490.07 51.208C489.59 51.208 489.188 51.052 488.864 50.74C488.54 50.428 488.378 50.032 488.378 49.552C488.378 49.084 488.54 48.694 488.864 48.382C489.188 48.058 489.59 47.896 490.07 47.896C490.538 47.896 490.934 48.058 491.258 48.382C491.594 48.694 491.762 49.084 491.762 49.552C491.762 50.02 491.594 50.416 491.258 50.74C490.934 51.052 490.538 51.208 490.07 51.208ZM488.486 52.36H491.654V61H488.486V52.36ZM493.028 59.272L497.132 54.556H493.136V52.36H501.308V54.088L497.24 58.804H501.452V61H493.028V59.272ZM507.781 61.27C506.089 61.27 504.757 60.874 503.785 60.082C502.825 59.29 502.345 58.168 502.345 56.716C502.345 55.288 502.771 54.16 503.623 53.332C504.487 52.504 505.729 52.09 507.349 52.09C508.381 52.09 509.263 52.288 509.995 52.684C510.739 53.068 511.297 53.602 511.669 54.286C512.053 54.958 512.245 55.72 512.245 56.572V57.742H505.351C505.471 58.222 505.771 58.57 506.251 58.786C506.731 59.002 507.385 59.11 508.213 59.11C508.777 59.11 509.353 59.062 509.941 58.966C510.541 58.87 511.057 58.738 511.489 58.57V60.658C511.045 60.838 510.487 60.982 509.815 61.09C509.155 61.21 508.477 61.27 507.781 61.27ZM509.257 55.762C509.209 55.294 509.017 54.928 508.681 54.664C508.345 54.4 507.883 54.268 507.295 54.268C506.719 54.268 506.263 54.406 505.927 54.682C505.591 54.946 505.399 55.306 505.351 55.762H509.257ZM517.728 61.27C516.828 61.27 516.03 61.084 515.333 60.712C514.638 60.328 514.098 59.794 513.714 59.11C513.33 58.414 513.138 57.61 513.138 56.698C513.138 55.798 513.33 55 513.714 54.304C514.098 53.596 514.632 53.05 515.316 52.666C516.012 52.282 516.816 52.09 517.728 52.09C518.328 52.09 518.88 52.174 519.384 52.342C519.888 52.51 520.32 52.75 520.68 53.062V47.698H523.848V61H520.788V60.136C519.984 60.892 518.964 61.27 517.728 61.27ZM518.556 58.822C519.036 58.822 519.468 58.702 519.852 58.462C520.236 58.21 520.512 57.874 520.68 57.454V55.924C520.512 55.504 520.236 55.174 519.852 54.934C519.468 54.682 519.036 54.556 518.556 54.556C517.908 54.556 517.386 54.748 516.99 55.132C516.594 55.516 516.396 56.038 516.396 56.698C516.396 57.358 516.594 57.88 516.99 58.264C517.386 58.636 517.908 58.822 518.556 58.822ZM531.585 48.418H534.645L538.281 56.212L541.935 48.418H544.977V61H542.007V54.682L539.001 61H537.561L534.573 54.682V61H531.585V48.418ZM551.673 61.27C549.981 61.27 548.649 60.874 547.677 60.082C546.717 59.29 546.237 58.168 546.237 56.716C546.237 55.288 546.663 54.16 547.515 53.332C548.379 52.504 549.621 52.09 551.241 52.09C552.273 52.09 553.155 52.288 553.887 52.684C554.631 53.068 555.189 53.602 555.561 54.286C555.945 54.958 556.137 55.72 556.137 56.572V57.742H549.243C549.363 58.222 549.663 58.57 550.143 58.786C550.623 59.002 551.277 59.11 552.105 59.11C552.669 59.11 553.245 59.062 553.833 58.966C554.433 58.87 554.949 58.738 555.381 58.57V60.658C554.937 60.838 554.379 60.982 553.707 61.09C553.047 61.21 552.369 61.27 551.673 61.27ZM553.149 55.762C553.101 55.294 552.909 54.928 552.573 54.664C552.237 54.4 551.775 54.268 551.187 54.268C550.611 54.268 550.155 54.406 549.819 54.682C549.483 54.946 549.291 55.306 549.243 55.762H553.149ZM561.62 61.27C560.72 61.27 559.922 61.084 559.226 60.712C558.53 60.328 557.99 59.794 557.606 59.11C557.222 58.414 557.03 57.61 557.03 56.698C557.03 55.798 557.222 55 557.606 54.304C557.99 53.596 558.524 53.05 559.208 52.666C559.904 52.282 560.708 52.09 561.62 52.09C562.22 52.09 562.772 52.174 563.276 52.342C563.78 52.51 564.212 52.75 564.572 53.062V47.698H567.74V61H564.68V60.136C563.876 60.892 562.856 61.27 561.62 61.27ZM562.448 58.822C562.928 58.822 563.36 58.702 563.744 58.462C564.128 58.21 564.404 57.874 564.572 57.454V55.924C564.404 55.504 564.128 55.174 563.744 54.934C563.36 54.682 562.928 54.556 562.448 54.556C561.8 54.556 561.278 54.748 560.882 55.132C560.486 55.516 560.288 56.038 560.288 56.698C560.288 57.358 560.486 57.88 560.882 58.264C561.278 58.636 561.8 58.822 562.448 58.822ZM571.053 51.208C570.573 51.208 570.171 51.052 569.847 50.74C569.523 50.428 569.361 50.032 569.361 49.552C569.361 49.084 569.523 48.694 569.847 48.382C570.171 48.058 570.573 47.896 571.053 47.896C571.521 47.896 571.917 48.058 572.241 48.382C572.577 48.694 572.745 49.084 572.745 49.552C572.745 50.02 572.577 50.416 572.241 50.74C571.917 51.052 571.521 51.208 571.053 51.208ZM569.469 52.36H572.637V61H569.469V52.36ZM577.629 61.27C576.549 61.27 575.673 61.012 575.001 60.496C574.341 59.968 574.011 59.236 574.011 58.3C574.011 57.328 574.329 56.584 574.965 56.068C575.613 55.54 576.537 55.276 577.737 55.276C578.205 55.276 578.673 55.33 579.141 55.438C579.609 55.534 580.011 55.666 580.347 55.834V55.654C580.347 54.73 579.591 54.268 578.079 54.268C577.023 54.268 576.057 54.472 575.181 54.88V52.702C575.565 52.522 576.069 52.378 576.693 52.27C577.317 52.15 577.965 52.09 578.637 52.09C580.245 52.09 581.457 52.414 582.273 53.062C583.101 53.698 583.515 54.592 583.515 55.744V61H580.545V60.262C580.221 60.574 579.813 60.82 579.321 61C578.829 61.18 578.265 61.27 577.629 61.27ZM578.565 59.326C578.937 59.326 579.285 59.254 579.609 59.11C579.933 58.954 580.179 58.756 580.347 58.516V57.76C579.831 57.412 579.243 57.238 578.583 57.238C578.163 57.238 577.839 57.328 577.611 57.508C577.383 57.688 577.269 57.952 577.269 58.3C577.269 58.624 577.377 58.876 577.593 59.056C577.821 59.236 578.145 59.326 578.565 59.326ZM594.416 61.27C593.336 61.27 592.46 61.012 591.788 60.496C591.128 59.968 590.798 59.236 590.798 58.3C590.798 57.328 591.116 56.584 591.752 56.068C592.4 55.54 593.324 55.276 594.524 55.276C594.992 55.276 595.46 55.33 595.928 55.438C596.396 55.534 596.798 55.666 597.134 55.834V55.654C597.134 54.73 596.378 54.268 594.866 54.268C593.81 54.268 592.844 54.472 591.968 54.88V52.702C592.352 52.522 592.856 52.378 593.48 52.27C594.104 52.15 594.752 52.09 595.424 52.09C597.032 52.09 598.244 52.414 599.06 53.062C599.888 53.698 600.302 54.592 600.302 55.744V61H597.332V60.262C597.008 60.574 596.6 60.82 596.108 61C595.616 61.18 595.052 61.27 594.416 61.27ZM595.352 59.326C595.724 59.326 596.072 59.254 596.396 59.11C596.72 58.954 596.966 58.756 597.134 58.516V57.76C596.618 57.412 596.03 57.238 595.37 57.238C594.95 57.238 594.626 57.328 594.398 57.508C594.17 57.688 594.056 57.952 594.056 58.3C594.056 58.624 594.164 58.876 594.38 59.056C594.608 59.236 594.932 59.326 595.352 59.326ZM601.828 52.36H604.888V53.314C605.26 52.906 605.71 52.6 606.238 52.396C606.766 52.192 607.318 52.09 607.894 52.09C609.106 52.09 610 52.408 610.576 53.044C611.164 53.668 611.458 54.52 611.458 55.6V61H608.29V56.014C608.29 55.042 607.846 54.556 606.958 54.556C606.55 54.556 606.178 54.652 605.842 54.844C605.506 55.024 605.224 55.306 604.996 55.69V61H601.828V52.36ZM617.22 61.27C616.32 61.27 615.522 61.084 614.826 60.712C614.13 60.328 613.59 59.794 613.206 59.11C612.822 58.414 612.63 57.61 612.63 56.698C612.63 55.798 612.822 55 613.206 54.304C613.59 53.596 614.124 53.05 614.808 52.666C615.504 52.282 616.308 52.09 617.22 52.09C617.82 52.09 618.372 52.174 618.876 52.342C619.38 52.51 619.812 52.75 620.172 53.062V47.698H623.34V61H620.28V60.136C619.476 60.892 618.456 61.27 617.22 61.27ZM618.048 58.822C618.528 58.822 618.96 58.702 619.344 58.462C619.728 58.21 620.004 57.874 620.172 57.454V55.924C620.004 55.504 619.728 55.174 619.344 54.934C618.96 54.682 618.528 54.556 618.048 54.556C617.4 54.556 616.878 54.748 616.482 55.132C616.086 55.516 615.888 56.038 615.888 56.698C615.888 57.358 616.086 57.88 616.482 58.264C616.878 58.636 617.4 58.822 618.048 58.822ZM634.822 61.27C633.754 61.27 632.944 60.976 632.392 60.388C631.852 59.788 631.582 58.972 631.582 57.94V54.556H630.358V52.36H631.582V49.768H634.75V52.36H636.73V54.556H634.75V57.508C634.75 57.976 634.834 58.312 635.002 58.516C635.182 58.72 635.494 58.822 635.938 58.822C636.334 58.822 636.73 58.714 637.126 58.498V60.856C636.814 61 636.478 61.102 636.118 61.162C635.77 61.234 635.338 61.27 634.822 61.27ZM638.021 47.698H641.189V53.242C641.573 52.858 642.011 52.57 642.503 52.378C643.007 52.186 643.535 52.09 644.087 52.09C645.299 52.09 646.193 52.408 646.769 53.044C647.357 53.668 647.651 54.52 647.651 55.6V61H644.483V56.014C644.483 55.042 644.039 54.556 643.151 54.556C642.743 54.556 642.371 54.652 642.035 54.844C641.699 55.024 641.417 55.306 641.189 55.69V61H638.021V47.698ZM654.259 61.27C652.567 61.27 651.235 60.874 650.263 60.082C649.303 59.29 648.823 58.168 648.823 56.716C648.823 55.288 649.249 54.16 650.101 53.332C650.965 52.504 652.207 52.09 653.827 52.09C654.859 52.09 655.741 52.288 656.473 52.684C657.217 53.068 657.775 53.602 658.147 54.286C658.531 54.958 658.723 55.72 658.723 56.572V57.742H651.829C651.949 58.222 652.249 58.57 652.729 58.786C653.209 59.002 653.863 59.11 654.691 59.11C655.255 59.11 655.831 59.062 656.419 58.966C657.019 58.87 657.535 58.738 657.967 58.57V60.658C657.523 60.838 656.965 60.982 656.293 61.09C655.633 61.21 654.955 61.27 654.259 61.27ZM655.735 55.762C655.687 55.294 655.495 54.928 655.159 54.664C654.823 54.4 654.361 54.268 653.773 54.268C653.197 54.268 652.741 54.406 652.405 54.682C652.069 54.946 651.877 55.306 651.829 55.762H655.735ZM273.49 75.418H276.622L281.644 88H278.386L277.378 85.408H272.734L271.726 88H268.45L273.49 75.418ZM276.586 82.96L275.056 78.73L273.508 82.96H276.586ZM285.474 88.27C284.406 88.27 283.596 87.976 283.044 87.388C282.504 86.788 282.234 85.972 282.234 84.94V81.556H281.01V79.36H282.234V76.768H285.402V79.36H287.382V81.556H285.402V84.508C285.402 84.976 285.486 85.312 285.654 85.516C285.834 85.72 286.146 85.822 286.59 85.822C286.986 85.822 287.382 85.714 287.778 85.498V87.856C287.466 88 287.13 88.102 286.77 88.162C286.422 88.234 285.99 88.27 285.474 88.27ZM291.96 88.27C290.892 88.27 290.082 87.976 289.53 87.388C288.99 86.788 288.72 85.972 288.72 84.94V81.556H287.496V79.36H288.72V76.768H291.888V79.36H293.868V81.556H291.888V84.508C291.888 84.976 291.972 85.312 292.14 85.516C292.32 85.72 292.632 85.822 293.076 85.822C293.472 85.822 293.868 85.714 294.264 85.498V87.856C293.952 88 293.616 88.102 293.256 88.162C292.908 88.234 292.476 88.27 291.96 88.27ZM300.236 88.27C298.544 88.27 297.212 87.874 296.24 87.082C295.28 86.29 294.8 85.168 294.8 83.716C294.8 82.288 295.226 81.16 296.078 80.332C296.942 79.504 298.184 79.09 299.804 79.09C300.836 79.09 301.718 79.288 302.45 79.684C303.194 80.068 303.752 80.602 304.124 81.286C304.508 81.958 304.7 82.72 304.7 83.572V84.742H297.806C297.926 85.222 298.226 85.57 298.706 85.786C299.186 86.002 299.84 86.11 300.668 86.11C301.232 86.11 301.808 86.062 302.396 85.966C302.996 85.87 303.512 85.738 303.944 85.57V87.658C303.5 87.838 302.942 87.982 302.27 88.09C301.61 88.21 300.932 88.27 300.236 88.27ZM301.712 82.762C301.664 82.294 301.472 81.928 301.136 81.664C300.8 81.4 300.338 81.268 299.75 81.268C299.174 81.268 298.718 81.406 298.382 81.682C298.046 81.946 297.854 82.306 297.806 82.762H301.712ZM305.953 79.36H309.013V80.314C309.385 79.906 309.835 79.6 310.363 79.396C310.891 79.192 311.443 79.09 312.019 79.09C313.231 79.09 314.125 79.408 314.701 80.044C315.289 80.668 315.583 81.52 315.583 82.6V88H312.415V83.014C312.415 82.042 311.971 81.556 311.083 81.556C310.675 81.556 310.303 81.652 309.967 81.844C309.631 82.024 309.349 82.306 309.121 82.69V88H305.953V79.36ZM320.859 88.27C319.791 88.27 318.981 87.976 318.429 87.388C317.889 86.788 317.619 85.972 317.619 84.94V81.556H316.395V79.36H317.619V76.768H320.787V79.36H322.767V81.556H320.787V84.508C320.787 84.976 320.871 85.312 321.039 85.516C321.219 85.72 321.531 85.822 321.975 85.822C322.371 85.822 322.767 85.714 323.163 85.498V87.856C322.851 88 322.515 88.102 322.155 88.162C321.807 88.234 321.375 88.27 320.859 88.27ZM325.75 78.208C325.27 78.208 324.868 78.052 324.544 77.74C324.22 77.428 324.058 77.032 324.058 76.552C324.058 76.084 324.22 75.694 324.544 75.382C324.868 75.058 325.27 74.896 325.75 74.896C326.218 74.896 326.614 75.058 326.938 75.382C327.274 75.694 327.442 76.084 327.442 76.552C327.442 77.02 327.274 77.416 326.938 77.74C326.614 78.052 326.218 78.208 325.75 78.208ZM324.166 79.36H327.334V88H324.166V79.36ZM334.036 88.27C332.968 88.27 332.032 88.078 331.228 87.694C330.424 87.298 329.8 86.758 329.356 86.074C328.924 85.378 328.708 84.58 328.708 83.68C328.708 82.78 328.924 81.988 329.356 81.304C329.8 80.608 330.424 80.068 331.228 79.684C332.032 79.288 332.968 79.09 334.036 79.09C335.104 79.09 336.04 79.288 336.844 79.684C337.648 80.068 338.266 80.608 338.698 81.304C339.142 81.988 339.364 82.78 339.364 83.68C339.364 84.58 339.142 85.378 338.698 86.074C338.266 86.758 337.648 87.298 336.844 87.694C336.04 88.078 335.104 88.27 334.036 88.27ZM334.036 85.804C334.672 85.804 335.176 85.618 335.548 85.246C335.932 84.862 336.124 84.34 336.124 83.68C336.124 83.02 335.932 82.504 335.548 82.132C335.176 81.748 334.672 81.556 334.036 81.556C333.4 81.556 332.89 81.748 332.506 82.132C332.134 82.504 331.948 83.02 331.948 83.68C331.948 84.34 332.134 84.862 332.506 85.246C332.89 85.618 333.4 85.804 334.036 85.804ZM340.617 79.36H343.677V80.314C344.049 79.906 344.499 79.6 345.027 79.396C345.555 79.192 346.107 79.09 346.683 79.09C347.895 79.09 348.789 79.408 349.365 80.044C349.953 80.668 350.247 81.52 350.247 82.6V88H347.079V83.014C347.079 82.042 346.635 81.556 345.747 81.556C345.339 81.556 344.967 81.652 344.631 81.844C344.295 82.024 344.013 82.306 343.785 82.69V88H340.617V79.36ZM357.896 75.418H366.824V78.1H361.082V80.458H365.276V82.96H361.082V85.318H366.824V88H357.896V75.418ZM372.422 88.27C370.838 88.27 369.584 87.874 368.66 87.082C367.736 86.29 367.274 85.162 367.274 83.698C367.274 82.234 367.736 81.1 368.66 80.296C369.596 79.492 370.856 79.09 372.44 79.09C373.148 79.09 373.808 79.162 374.42 79.306C375.044 79.438 375.56 79.63 375.968 79.882V82.348C375.236 81.82 374.27 81.556 373.07 81.556C372.302 81.556 371.684 81.736 371.216 82.096C370.76 82.444 370.532 82.978 370.532 83.698C370.532 84.43 370.76 84.97 371.216 85.318C371.672 85.654 372.284 85.822 373.052 85.822C374.216 85.822 375.224 85.546 376.076 84.994V87.442C375.164 87.994 373.946 88.27 372.422 88.27ZM382.042 88.27C380.974 88.27 380.038 88.078 379.234 87.694C378.43 87.298 377.806 86.758 377.362 86.074C376.93 85.378 376.714 84.58 376.714 83.68C376.714 82.78 376.93 81.988 377.362 81.304C377.806 80.608 378.43 80.068 379.234 79.684C380.038 79.288 380.974 79.09 382.042 79.09C383.11 79.09 384.046 79.288 384.85 79.684C385.654 80.068 386.272 80.608 386.704 81.304C387.148 81.988 387.37 82.78 387.37 83.68C387.37 84.58 387.148 85.378 386.704 86.074C386.272 86.758 385.654 87.298 384.85 87.694C384.046 88.078 383.11 88.27 382.042 88.27ZM382.042 85.804C382.678 85.804 383.182 85.618 383.554 85.246C383.938 84.862 384.13 84.34 384.13 83.68C384.13 83.02 383.938 82.504 383.554 82.132C383.182 81.748 382.678 81.556 382.042 81.556C381.406 81.556 380.896 81.748 380.512 82.132C380.14 82.504 379.954 83.02 379.954 83.68C379.954 84.34 380.14 84.862 380.512 85.246C380.896 85.618 381.406 85.804 382.042 85.804ZM388.623 79.36H391.683V80.314C392.055 79.906 392.505 79.6 393.033 79.396C393.561 79.192 394.113 79.09 394.689 79.09C395.901 79.09 396.795 79.408 397.371 80.044C397.959 80.668 398.253 81.52 398.253 82.6V88H395.085V83.014C395.085 82.042 394.641 81.556 393.753 81.556C393.345 81.556 392.973 81.652 392.637 81.844C392.301 82.024 392.019 82.306 391.791 82.69V88H388.623V79.36ZM404.489 88.27C403.421 88.27 402.485 88.078 401.681 87.694C400.877 87.298 400.253 86.758 399.809 86.074C399.377 85.378 399.161 84.58 399.161 83.68C399.161 82.78 399.377 81.988 399.809 81.304C400.253 80.608 400.877 80.068 401.681 79.684C402.485 79.288 403.421 79.09 404.489 79.09C405.557 79.09 406.493 79.288 407.297 79.684C408.101 80.068 408.719 80.608 409.151 81.304C409.595 81.988 409.817 82.78 409.817 83.68C409.817 84.58 409.595 85.378 409.151 86.074C408.719 86.758 408.101 87.298 407.297 87.694C406.493 88.078 405.557 88.27 404.489 88.27ZM404.489 85.804C405.125 85.804 405.629 85.618 406.001 85.246C406.385 84.862 406.577 84.34 406.577 83.68C406.577 83.02 406.385 82.504 406.001 82.132C405.629 81.748 405.125 81.556 404.489 81.556C403.853 81.556 403.343 81.748 402.959 82.132C402.587 82.504 402.401 83.02 402.401 83.68C402.401 84.34 402.587 84.862 402.959 85.246C403.343 85.618 403.853 85.804 404.489 85.804ZM411.07 79.36H414.004V80.296C414.364 79.912 414.778 79.618 415.246 79.414C415.714 79.198 416.212 79.09 416.74 79.09C417.388 79.09 417.904 79.186 418.288 79.378C418.684 79.57 419.002 79.858 419.242 80.242C419.602 79.882 420.04 79.6 420.556 79.396C421.072 79.192 421.594 79.09 422.122 79.09C423.262 79.09 424.072 79.384 424.552 79.972C425.032 80.548 425.272 81.382 425.272 82.474V88H422.248V82.924C422.248 82.444 422.158 82.096 421.978 81.88C421.798 81.664 421.498 81.556 421.078 81.556C420.538 81.556 420.1 81.748 419.764 82.132C419.776 82.336 419.782 82.648 419.782 83.068V88H416.758V82.798C416.758 82.354 416.68 82.036 416.524 81.844C416.368 81.652 416.092 81.556 415.696 81.556C415.084 81.556 414.556 81.898 414.112 82.582V88H411.07V79.36ZM429.009 91.564C428.625 91.564 428.223 91.534 427.803 91.474C427.383 91.426 427.071 91.354 426.867 91.258V88.9C427.215 89.044 427.611 89.116 428.055 89.116C428.451 89.116 428.757 89.026 428.973 88.846C429.201 88.678 429.381 88.408 429.513 88.036L429.729 87.46L425.985 79.36H429.153L431.403 84.976L433.527 79.36H436.695L433.131 88.396C432.711 89.476 432.171 90.274 431.511 90.79C430.863 91.306 430.029 91.564 429.009 91.564Z" fill="white"/>
<path d="M91.9104 36.9523C89.5379 32.3016 93.0121 26.436 99.6737 23.8481C102.662 22.6439 106.021 22.3288 109.234 22.9511C110.251 17.7152 115.674 13.1213 123.009 11.8819C132.073 10.346 140.625 14.4929 142.107 21.1602C143.589 27.8276 137.447 34.4671 128.379 36.0045C124.105 36.7798 119.655 36.1982 115.829 34.3642C114.275 37.2064 111.583 39.4543 108.261 40.6844C106.25 41.476 104.071 41.891 101.865 41.9025C99.8338 42.0113 97.8103 41.6009 96.0422 40.7217C94.2742 39.8425 92.8384 38.5327 91.9104 36.9523Z" fill="#FF4141"/>
<path d="M79.5399 54.2527L57.283 38.0674L50.3698 54.2527L52.7298 61.3178L50.3698 66.9085L57.283 86.9197L79.5399 68.2324V54.2527Z" fill="#FF4141"/>
<path d="M91.2426 94.2391C87.9426 89.2512 112.078 70.4402 112.078 70.4402L124.001 87.9356C124.001 87.9356 94.5426 99.2271 91.2426 94.2391Z" fill="#FFA54B"/>
<path d="M129.441 33.2128C158.991 33.2128 182.963 61.0385 182.963 61.0385C182.963 61.0385 158.991 88.8643 129.441 88.8643C99.8906 88.8643 75.9194 76.4066 75.9194 61.0385C75.9194 45.6704 99.8818 33.2128 129.441 33.2128Z" fill="#FFA54B"/>
<path d="M186.159 58.3758C185.488 57.4405 170.403 36.7197 146.363 30.9079C147.639 26.0696 146.699 20.9879 143.744 16.7454C141.937 14.0554 139.347 11.83 136.238 10.2944C133.128 8.75882 129.608 7.96765 126.035 8.00101C122.462 8.03438 118.963 8.89109 115.891 10.4844C112.82 12.0777 110.285 14.351 108.544 17.0741C93.5456 15.6918 82.3204 28.7638 86.782 41.269C83.4098 43.2687 80.3901 45.6871 77.8183 48.4478C71.5965 44.3359 66.2581 39.2951 62.0504 33.5589C61.7164 33.1104 61.2713 32.7331 60.7479 32.4549C60.2246 32.1766 59.6363 32.0044 59.0264 31.9511C58.4166 31.8977 57.8009 31.9645 57.2246 32.1465C56.6483 32.3286 56.1262 32.6212 55.6968 33.0029C46.756 40.9127 42.3032 51.2631 49.8008 60.3802C42.305 69.488 46.7543 79.8384 55.6951 87.7498C56.1244 88.1315 56.6465 88.4241 57.2228 88.6061C57.7991 88.7882 58.4149 88.855 59.0247 88.8016C59.6345 88.7483 60.2228 88.5761 60.7462 88.2978C61.2696 88.0196 61.7147 87.6423 62.0487 87.1938C66.2645 81.4454 71.6164 76.3959 77.8552 72.2803C82.3502 76.8357 87.8636 80.5423 94.0578 83.1729C92.318 85.112 90.2079 86.7747 87.8204 88.0877C87.172 88.4366 86.6441 88.9323 86.2928 89.5221C85.9415 90.1119 85.7801 90.7738 85.8256 91.4373C85.8711 92.1008 86.1218 92.7412 86.5512 93.2903C86.9806 93.8393 87.5724 94.2765 88.2639 94.5554C93.9837 96.7305 100.269 97.5218 106.46 96.8462C112.651 96.1705 118.52 94.0529 123.45 90.7156C126.941 91.0724 130.453 91.2524 133.968 91.2547C146.937 91.2547 160.098 86.2155 172.028 76.6791C177.397 72.4082 182.143 67.5757 186.157 62.2908C186.577 61.7048 186.799 61.0276 186.799 60.3364C186.799 59.6452 186.577 58.968 186.157 58.382L186.159 58.3758ZM109.752 24.6906C110.75 24.9397 111.819 24.8502 112.744 24.4399C113.67 24.0297 114.383 23.3291 114.741 22.4789C115.585 20.3935 117.143 18.5852 119.205 17.2995C121.267 16.0138 123.732 15.313 126.266 15.2924C134.862 15.2924 140.265 22.8322 138.218 29.6039C123.024 28.8423 107.864 31.5322 94.2179 37.4109C92.8328 29.6454 100.691 22.4021 109.752 24.6906ZM58.2823 79.284C56.4993 77.2883 55.2227 74.9848 54.537 72.526C54.1118 70.7951 54.2217 68.9966 54.8554 67.3149C55.4891 65.6332 56.6238 64.1288 58.1432 62.9559C58.9182 62.2667 59.3524 61.3396 59.3524 60.374C59.3524 59.4084 58.9182 58.4814 58.1432 57.7922C56.6243 56.6202 55.4897 55.117 54.8554 53.4364C54.2211 51.7559 54.11 49.9585 54.5335 48.2282C55.2181 45.7663 56.4948 43.4596 58.2788 41.461C62.6123 46.579 67.8168 51.0888 73.7122 54.8341C72.265 58.4175 72.27 62.3257 73.7263 65.9063C67.8252 69.653 62.6158 74.1654 58.2788 79.287L58.2823 79.284ZM166.346 71.3772C155.857 79.7156 144.966 83.9424 133.976 83.9424C132.908 83.9424 131.834 83.9209 130.757 83.884C134.252 79.3562 136.71 74.2817 137.998 68.9397C138.248 68.0013 138.063 67.0147 137.484 66.1946C136.904 65.3745 135.977 64.7874 134.904 64.5609C134.373 64.4546 133.823 64.441 133.287 64.5209C132.75 64.6008 132.236 64.7726 131.776 65.0265C131.316 65.2803 130.917 65.6112 130.604 65.9999C130.291 66.3887 130.069 66.8277 129.951 67.2917C127.436 76.9356 121.954 83.8656 114.099 87.3305C109.331 89.4172 103.953 90.1998 98.6672 89.576C103.51 84.7744 107.14 79.1367 109.321 73.0298C109.63 72.1058 109.509 71.1127 108.984 70.2659C108.46 69.4192 107.574 68.787 106.519 68.5066C105.996 68.3735 105.449 68.3319 104.908 68.3843C104.367 68.4367 103.844 68.5821 103.368 68.812C102.891 69.0418 102.472 69.3517 102.134 69.7237C101.796 70.0957 101.545 70.5225 101.397 70.9794C100.64 73.047 99.6896 75.0571 98.5564 76.9894C90.9883 73.7333 85.3264 69.6662 82.6354 65.57C82.5816 65.4624 82.5162 65.3595 82.44 65.2628C81.4097 63.7505 80.8722 62.0213 80.8856 60.2619C80.8989 58.5026 81.4626 56.7798 82.5157 55.2795C90.6504 42.4701 121.964 34.6248 140.209 37.1728C154.936 39.2309 168.775 49.6643 177.645 60.3295C174.309 64.333 170.522 68.0346 166.339 71.3787L166.346 71.3772Z" fill="#171753"/>
<path d="M153.873 49.5323C153.306 49.202 152.655 48.9987 151.977 48.9405C151.299 48.8822 150.615 48.9708 149.985 49.1984C149.356 49.426 148.801 49.7856 148.368 50.2452C147.936 50.7049 147.64 51.2505 147.508 51.8337C147.375 52.4169 147.409 53.0197 147.607 53.5887C147.805 54.1577 148.16 54.6753 148.642 55.0956C149.124 55.516 149.717 55.8262 150.369 55.9987C151.021 56.1712 151.712 56.2007 152.38 56.0846C153.183 55.9443 153.921 55.5995 154.5 55.0938C155.078 54.5881 155.472 53.9441 155.632 53.2431C155.792 52.5421 155.71 51.8155 155.397 51.1551C155.084 50.4947 154.553 49.93 153.873 49.5323Z" fill="#171753"/>
<path d="M58.25 119.42C56.09 119.42 54.24 118.95 52.7 118.01C51.18 117.07 50.01 115.8 49.19 114.2C48.37 112.6 47.96 110.83 47.96 108.89C47.96 106.79 48.4 104.94 49.28 103.34C50.16 101.74 51.37 100.48 52.91 99.56C54.45 98.64 56.23 98.17 58.25 98.15C60.41 98.15 62.26 98.62 63.8 99.56C65.34 100.5 66.51 101.77 67.31 103.37C68.13 104.95 68.54 106.72 68.54 108.68C68.54 110.78 68.1 112.64 67.22 114.26C66.36 115.86 65.15 117.12 63.59 118.04C62.05 118.94 60.27 119.4 58.25 119.42ZM58.22 115.49C59.22 115.49 60.13 115.24 60.95 114.74C61.79 114.24 62.45 113.49 62.93 112.49C63.43 111.47 63.68 110.2 63.68 108.68C63.68 107.42 63.46 106.29 63.02 105.29C62.6 104.29 61.98 103.51 61.16 102.95C60.36 102.37 59.41 102.08 58.31 102.08C57.31 102.08 56.39 102.36 55.55 102.92C54.73 103.48 54.07 104.27 53.57 105.29C53.07 106.29 52.82 107.48 52.82 108.86C52.82 110.14 53.03 111.28 53.45 112.28C53.89 113.28 54.51 114.07 55.31 114.65C56.13 115.21 57.1 115.49 58.22 115.49ZM78.92 125.27L74.24 125.57V104.48H76.61L77.45 105.38C77.99 104.96 78.59 104.63 79.25 104.39C79.93 104.13 80.64 104 81.38 104C82.84 104 84.12 104.29 85.22 104.87C86.34 105.45 87.21 106.31 87.83 107.45C88.45 108.57 88.76 109.95 88.76 111.59C88.76 114.03 88.08 115.93 86.72 117.29C85.36 118.65 83.52 119.33 81.2 119.33C80.46 119.33 79.7 119.17 78.92 118.85V125.27ZM80.87 107.78C80.25 107.78 79.6 108 78.92 108.44V114.98C79.6 115.38 80.29 115.58 80.99 115.58C81.87 115.58 82.58 115.22 83.12 114.5C83.66 113.76 83.93 112.8 83.93 111.62C83.93 110.44 83.66 109.51 83.12 108.83C82.6 108.13 81.85 107.78 80.87 107.78ZM107.523 113H98.1929C98.3729 113.76 98.7629 114.38 99.3629 114.86C99.9629 115.32 100.853 115.55 102.033 115.55C102.893 115.55 103.653 115.44 104.313 115.22C104.993 114.98 105.603 114.71 106.143 114.41L107.463 117.68C106.843 118.14 106.033 118.53 105.033 118.85C104.053 119.17 102.943 119.33 101.703 119.33C99.0429 119.33 96.9429 118.67 95.4029 117.35C93.8829 116.01 93.1229 114.14 93.1229 111.74C93.1229 110.14 93.4429 108.77 94.0829 107.63C94.7429 106.47 95.6429 105.58 96.7829 104.96C97.9229 104.32 99.2329 104 100.713 104C102.253 104 103.523 104.35 104.523 105.05C105.523 105.75 106.273 106.68 106.773 107.84C107.273 108.98 107.523 110.23 107.523 111.59V113ZM98.1329 110.33H103.053C102.953 109.63 102.693 109.05 102.273 108.59C101.873 108.11 101.313 107.87 100.593 107.87C99.9529 107.87 99.4029 108.1 98.9429 108.56C98.4829 109 98.2129 109.59 98.1329 110.33ZM117.465 119H112.755V104.45H115.665L116.475 105.98C117.295 105.42 118.215 104.95 119.235 104.57C120.275 104.17 121.285 103.97 122.265 103.97C123.545 103.97 124.555 104.22 125.295 104.72C126.055 105.22 126.595 105.91 126.915 106.79C127.235 107.65 127.395 108.63 127.395 109.73V119H122.685V110.09C122.685 109.41 122.535 108.86 122.235 108.44C121.955 108.02 121.505 107.81 120.885 107.81C120.325 107.81 119.725 107.95 119.085 108.23C118.465 108.51 117.925 108.79 117.465 109.07V119ZM156.122 119L150.452 110.96L148.652 112.76V119H143.942V98.6H148.652V106.4L157.172 98.15L160.742 100.79L153.752 107.69L162.032 119H156.122ZM173.982 119.33C172.402 119.33 171.012 119.04 169.812 118.46C168.632 117.86 167.702 117 167.022 115.88C166.342 114.74 166.002 113.34 166.002 111.68C166.002 110.1 166.352 108.74 167.052 107.6C167.752 106.44 168.702 105.55 169.902 104.93C171.102 104.31 172.482 104 174.042 104C175.622 104 177.012 104.31 178.212 104.93C179.412 105.53 180.352 106.41 181.032 107.57C181.712 108.71 182.052 110.1 182.052 111.74C182.052 113.34 181.702 114.71 181.002 115.85C180.302 116.97 179.342 117.83 178.122 118.43C176.922 119.03 175.542 119.33 173.982 119.33ZM174.012 115.46C174.972 115.46 175.742 115.13 176.322 114.47C176.902 113.79 177.192 112.88 177.192 111.74C177.192 110.62 176.902 109.7 176.322 108.98C175.762 108.26 175.012 107.9 174.072 107.9C173.092 107.9 172.312 108.25 171.732 108.95C171.152 109.65 170.862 110.56 170.862 111.68C170.862 112.8 171.142 113.71 171.702 114.41C172.282 115.11 173.052 115.46 174.012 115.46ZM189.615 102.44C188.915 102.44 188.305 102.19 187.785 101.69C187.285 101.17 187.035 100.56 187.035 99.86C187.035 99.14 187.285 98.53 187.785 98.03C188.305 97.51 188.915 97.25 189.615 97.25C190.335 97.25 190.945 97.51 191.445 98.03C191.965 98.53 192.225 99.14 192.225 99.86C192.225 100.56 191.965 101.17 191.445 101.69C190.945 102.19 190.335 102.44 189.615 102.44ZM191.985 119H187.275V104.45H191.985V119Z" fill="white"/>
</svg>
